PathFileType	4	(X/Y/Z)	/tmp/tmpepkllnfa/sub03/MarkerData/sub03_strifc_cond00000_speed02000_0001_0003_trc_segment_0.trc
DataRate	CameraRate	NumFrames	NumMarkers	Units	OrigDataRate	OrigDataStartFrame	OrigNumFrames
1001.32	1001.32	8	49	m	1001.32	475	760
Frame#	Time	C7			LANK			LASI			LBiceps			LClavicle			LD1M			LElbow			LForearm			LHEE			LKNE			LLCA			LMElbow			LMT5			LPSI			LSH1			LSH2			LSH3			LSTL			LShoulder			LTH1			LTH2			LTH3			LTHI			LTIB			LTOE			LWrist			RANK			RASI			RBiceps			RD1M			RElbow			RForearm			RHEE			RKNE			RLCA			RMElbow			RMT5			RPSI			RSH1			RSH2			RSTL			RShoulder			RTH1			RTH2			RTH3			RTHI			RTIB			RTOE			RWrist		
		X1	Y1	Z1	X2	Y2	Z2	X3	Y3	Z3	X4	Y4	Z4	X5	Y5	Z5	X6	Y6	Z6	X7	Y7	Z7	X8	Y8	Z8	X9	Y9	Z9	X10	Y10	Z10	X11	Y11	Z11	X12	Y12	Z12	X13	Y13	Z13	X14	Y14	Z14	X15	Y15	Z15	X16	Y16	Z16	X17	Y17	Z17	X18	Y18	Z18	X19	Y19	Z19	X20	Y20	Z20	X21	Y21	Z21	X22	Y22	Z22	X23	Y23	Z23	X24	Y24	Z24	X25	Y25	Z25	X26	Y26	Z26	X27	Y27	Z27	X28	Y28	Z28	X29	Y29	Z29	X30	Y30	Z30	X31	Y31	Z31	X32	Y32	Z32	X33	Y33	Z33	X34	Y34	Z34	X35	Y35	Z35	X36	Y36	Z36	X37	Y37	Z37	X38	Y38	Z38	X39	Y39	Z39	X40	Y40	Z40	X41	Y41	Z41	X42	Y42	Z42	X43	Y43	Z43	X44	Y44	Z44	X45	Y45	Z45	X46	Y46	Z46	X47	Y47	Z47	X48	Y48	Z48	X49	Y49	Z49

476	0.476375	0.0234123	1.45606	0.0048851	-0.256971	0.300563	-0.140301	0.137625	1.01363	-0.132377	0.0937339	1.26972	-0.231704	0.216774	1.41367	-0.023738	-0.269199	0.132617	-0.0443203	0.0371544	1.18587	-0.264375	0.125343	1.16663	-0.197616	-0.330977	0.321859	-0.0826525	0.0998389	0.464103	-0.180968	-0.326342	0.259934	-0.13684	-0.0266382	1.16227	-0.166757	-0.280978	0.124448	-0.156464	-0.0236433	1.03122	-0.0141391	-0.0452376	0.354592	-0.156162	-0.0225011	0.456996	-0.18394	-0.0873397	0.413032	-0.172851	-0.308642	0.262389	-0.0483383	0.15425	1.47273	-0.181935	0.162331	0.612666	-0.17784	0.0761056	0.677426	-0.173689	0.0899528	0.599504	-0.17383	0.147812	0.69023	-0.179338	0.019866	0.397241	-0.171911	-0.236522	0.0871667	-0.0852089	0.249358	1.1128	-0.174101	0.0668767	0.116123	0.122898	0.149853	1.03193	0.138476	0.0774316	1.26344	0.284218	0.205799	0.0320204	0.0287392	0.0159314	1.20125	0.332777	0.085734	1.13255	0.280526	0.000972968	0.0609245	0.0672577	0.211368	0.489036	0.155745	0.0639448	0.0369783	0.125292	-0.0635174	1.14418	0.251656	0.19792	0.0287572	0.150484	-0.0202592	1.03324	0.0426344	0.130696	0.163743	0.0986631	0.0794225	0.251269	0.13266	0.0629916	0.0441264	0.0328996	0.146699	1.45988	0.186156	0.229181	0.589715	0.162556	0.139726	0.650793	0.161861	0.157335	0.577206	0.146719	0.208832	0.663075	0.183537	0.15075	0.236136	0.117927	0.259552	0.0421663	0.0644126	0.180482	1.05194	0.325721
477	0.477374	0.0233615	1.45568	0.00505494	-0.255668	0.300669	-0.140264	0.137387	1.01324	-0.132372	0.0929328	1.26924	-0.231678	0.216672	1.41321	-0.0239109	-0.267773	0.132613	-0.0444301	0.0361395	1.1854	-0.264171	0.124459	1.16583	-0.197669	-0.329752	0.321847	-0.0825969	0.101257	0.463831	-0.18117	-0.325	0.259987	-0.136862	-0.0274946	1.16197	-0.166422	-0.279462	0.124568	-0.156606	-0.0239085	1.0308	-0.0141274	-0.0438824	0.354438	-0.156242	-0.0210732	0.456826	-0.184064	-0.0859467	0.412916	-0.172922	-0.307362	0.262345	-0.048345	0.15386	1.47222	-0.182063	0.163222	0.612524	-0.17808	0.0767837	0.677021	-0.173796	0.090874	0.599131	-0.173978	0.148459	0.690049	-0.179524	0.0212567	0.397024	-0.172056	-0.235007	0.0872408	-0.0853595	0.248347	1.11154	-0.174539	0.0650589	0.11613	0.123037	0.149667	1.03167	0.13851	0.0782998	1.26285	0.28446	0.203866	0.0320217	0.0288015	0.0171875	1.2005	0.333289	0.0870299	1.13195	0.280854	-0.000972011	0.0609714	0.0673372	0.210866	0.488641	0.156004	0.061995	0.0369887	0.125359	-0.062403	1.1431	0.252484	0.195998	0.0287216	0.150584	-0.0205035	1.0329	0.042648	0.129053	0.163591	0.0987801	0.0781096	0.251287	0.13287	0.0610442	0.0441769	0.0329675	0.146798	1.45945	0.186122	0.228863	0.589363	0.1628	0.139421	0.65048	0.162177	0.156989	0.576868	0.147056	0.208575	0.662762	0.183751	0.14938	0.235906	0.118087	0.257644	0.0421268	0.0644821	0.182137	1.05165	0.325844
478	0.478372	0.0233066	1.45529	0.00522097	-0.25435	0.300758	-0.140223	0.137145	1.01285	-0.132364	0.0921255	1.26874	-0.23165	0.216563	1.41273	-0.0240842	-0.266321	0.132597	-0.0445371	0.0351162	1.18492	-0.263962	0.123567	1.16503	-0.197722	-0.328513	0.321812	-0.082542	0.102673	0.463563	-0.181365	-0.323639	0.260019	-0.136882	-0.0283511	1.16165	-0.166084	-0.277917	0.124674	-0.156743	-0.0241686	1.03039	-0.0141162	-0.0425199	0.354282	-0.156317	-0.0196449	0.456654	-0.184179	-0.08455	0.412795	-0.172986	-0.306066	0.262285	-0.0483491	0.153466	1.4717	-0.182189	0.164109	0.612383	-0.178312	0.0774603	0.676616	-0.173897	0.0917924	0.598761	-0.174119	0.149103	0.689866	-0.179703	0.0226495	0.396808	-0.172196	-0.233461	0.0873071	-0.085504	0.247323	1.11028	-0.174977	0.0632374	0.116133	0.123174	0.149478	1.03141	0.138541	0.0791673	1.26225	0.284688	0.201928	0.032023	0.0288634	0.0184477	1.19973	0.333783	0.0883284	1.13133	0.281164	-0.00291791	0.0610163	0.067416	0.210342	0.488236	0.15626	0.0600426	0.0369988	0.125422	-0.0612786	1.14202	0.253295	0.194068	0.0286852	0.15068	-0.0207446	1.03256	0.0426602	0.127401	0.163438	0.0988959	0.0767837	0.251298	0.133075	0.0590954	0.0442272	0.033034	0.146893	1.459	0.186081	0.228525	0.589001	0.163039	0.139098	0.650156	0.162489	0.156624	0.576519	0.147391	0.208303	0.662439	0.183958	0.147996	0.235673	0.118245	0.255729	0.0420875	0.0645503	0.183793	1.05135	0.325947
479	0.479371	0.0232434	1.45465	0.00538292	-0.25298	0.300785	-0.140158	0.136879	1.01228	-0.132333	0.091298	1.26802	-0.231585	0.216413	1.41201	-0.0242536	-0.264803	0.132551	-0.0446339	0.0340796	1.18425	-0.263707	0.122646	1.16404	-0.197743	-0.327211	0.321705	-0.0824745	0.104069	0.463226	-0.181526	-0.322208	0.25999	-0.136878	-0.0292038	1.16115	-0.165716	-0.2763	0.124748	-0.156851	-0.0244194	1.0298	-0.0141032	-0.0411448	0.354068	-0.156363	-0.0182137	0.456409	-0.184258	-0.0831367	0.412604	-0.173018	-0.304707	0.262168	-0.048343	0.153044	1.47092	-0.182285	0.164966	0.612146	-0.178509	0.0781236	0.676104	-0.173965	0.092694	0.598298	-0.174226	0.14972	0.689574	-0.179847	0.0240406	0.396531	-0.172303	-0.231849	0.0873524	-0.0856298	0.246249	1.10885	-0.175389	0.0614034	0.116114	0.123288	0.149261	1.03097	0.138547	0.0800214	1.26143	0.284859	0.199951	0.0320186	0.0289206	0.0197086	1.19877	0.33421	0.0896149	1.13053	0.281416	-0.00486499	0.0610493	0.0674836	0.209765	0.487743	0.156487	0.0580782	0.0370027	0.125464	-0.0601363	1.14074	0.254052	0.192102	0.0286438	0.150749	-0.0209796	1.03204	0.0426641	0.125721	0.163257	0.0989939	0.0754334	0.251262	0.133254	0.0571352	0.04427	0.0330938	0.14696	1.4583	0.186005	0.22813	0.588537	0.163247	0.138735	0.649719	0.162772	0.156215	0.576071	0.147699	0.20798	0.662001	0.184131	0.146576	0.235399	0.118382	0.253766	0.0420418	0.0646073	0.185421	1.05088	0.32598
480	0.48037	0.0231754	1.454	0.00554106	-0.251595	0.300795	-0.14009	0.13661	1.0117	-0.132298	0.0904649	1.26729	-0.231517	0.216257	1.41127	-0.0244232	-0.263259	0.132492	-0.0447276	0.0330345	1.18357	-0.263447	0.121717	1.16305	-0.197763	-0.325894	0.321576	-0.0824068	0.105461	0.462894	-0.181679	-0.320758	0.25994	-0.136872	-0.030058	1.16064	-0.165345	-0.274654	0.124808	-0.156954	-0.0246644	1.0292	-0.01409	-0.0397633	0.353852	-0.156404	-0.0167829	0.456162	-0.184328	-0.0817199	0.412407	-0.173045	-0.303331	0.262035	-0.0483344	0.152618	1.47013	-0.182378	0.165818	0.611909	-0.178697	0.0787857	0.675592	-0.174026	0.0935926	0.597838	-0.174326	0.150334	0.68928	-0.179983	0.025434	0.396256	-0.172404	-0.230207	0.0873889	-0.0857498	0.245163	1.10742	-0.175803	0.0595664	0.116093	0.123398	0.149041	1.03051	0.138551	0.0808739	1.26061	0.285016	0.197969	0.0320133	0.0289773	0.020973	1.1978	0.334619	0.0909038	1.12973	0.28165	-0.0068141	0.0610794	0.0675505	0.209166	0.487239	0.15671	0.0561106	0.0370064	0.125502	-0.0589855	1.13946	0.254791	0.190129	0.028602	0.150813	-0.0212122	1.03151	0.0426674	0.124032	0.163075	0.0990892	0.0740697	0.251219	0.133426	0.0551728	0.0443125	0.033152	0.147023	1.45759	0.185921	0.227713	0.588061	0.163451	0.138352	0.649272	0.163049	0.155785	0.575612	0.148004	0.207638	0.661552	0.184299	0.145142	0.235122	0.118515	0.251796	0.0419965	0.0646626	0.187051	1.05041	0.325992
481	0.481368	0.0231059	1.45351	0.00569609	-0.25023	0.300827	-0.140038	0.136356	1.01125	-0.132278	0.0896379	1.26672	-0.23148	0.216122	1.4107	-0.0245962	-0.261722	0.132439	-0.0448243	0.0319852	1.18304	-0.263217	0.120794	1.16221	-0.197809	-0.324608	0.321466	-0.0823501	0.106863	0.462627	-0.181849	-0.319332	0.259902	-0.136882	-0.0309174	1.16028	-0.164992	-0.273013	0.124872	-0.157073	-0.0249071	1.02873	-0.0140783	-0.0383805	0.35368	-0.15646	-0.0153542	0.455973	-0.184415	-0.0803107	0.41226	-0.173089	-0.30198	0.261919	-0.0483298	0.152209	1.46951	-0.182493	0.166685	0.611756	-0.178901	0.0794568	0.67517	-0.174105	0.0945002	0.59746	-0.174443	0.150965	0.689076	-0.180135	0.0268323	0.396034	-0.172521	-0.228565	0.0874279	-0.0858748	0.244097	1.10614	-0.176242	0.0577336	0.116085	0.123521	0.148839	1.03018	0.13857	0.0817358	1.25994	0.285196	0.196006	0.0320113	0.0290371	0.0222432	1.19698	0.335055	0.0922069	1.12907	0.281903	-0.00876598	0.0611148	0.0676248	0.20857	0.486788	0.156949	0.0541475	0.0370155	0.125553	-0.0578334	1.13832	0.255547	0.188174	0.0285634	0.150892	-0.0214452	1.0311	0.0426754	0.122351	0.162913	0.0991949	0.0727018	0.251203	0.13361	0.0532153	0.0443603	0.0332127	0.1471	1.45705	0.185855	0.227302	0.587652	0.16367	0.137966	0.6489	0.163343	0.155353	0.57522	0.148322	0.207302	0.661177	0.184487	0.143714	0.234873	0.11866	0.24985	0.0419573	0.0647244	0.188706	1.05008	0.326026
482	0.482367	0.0230348	1.45321	0.00584817	-0.248883	0.300881	-0.140002	0.136119	1.01092	-0.132273	0.0888166	1.26631	-0.231473	0.216008	1.41031	-0.0247727	-0.260193	0.13239	-0.0449238	0.0309314	1.18267	-0.263017	0.119878	1.16152	-0.19788	-0.323352	0.321375	-0.0823044	0.108276	0.462428	-0.182036	-0.317929	0.259876	-0.136908	-0.0317827	1.16007	-0.164656	-0.271377	0.124937	-0.157208	-0.0251476	1.02839	-0.0140682	-0.0369974	0.353554	-0.156533	-0.0139282	0.455842	-0.184518	-0.0789096	0.412162	-0.17315	-0.300651	0.261819	-0.0483296	0.151815	1.46907	-0.18263	0.167568	0.611685	-0.179119	0.0801367	0.674838	-0.1742	0.0954169	0.597164	-0.174575	0.151611	0.688963	-0.180302	0.0282357	0.395867	-0.172654	-0.226924	0.0874697	-0.0860048	0.243052	1.10501	-0.176706	0.0559049	0.116089	0.123657	0.148653	1.02996	0.138606	0.0826066	1.25943	0.285399	0.194063	0.0320128	0.0290999	0.0235189	1.19631	0.335517	0.093524	1.12855	0.282176	-0.0107204	0.0611561	0.0677062	0.207976	0.486389	0.157203	0.0521888	0.0370296	0.125617	-0.05668	1.13732	0.256318	0.186238	0.0285288	0.150988	-0.0216783	1.03083	0.0426879	0.120676	0.16277	0.0993101	0.0713302	0.251212	0.133805	0.051262	0.0444131	0.0332766	0.147193	1.45669	0.185807	0.226897	0.58731	0.163908	0.137578	0.648604	0.16365	0.154919	0.574896	0.148654	0.20697	0.660876	0.184694	0.142292	0.234653	0.118816	0.247931	0.041924	0.0647926	0.190387	1.0499	0.326083
483	0.483366	0.0229595	1.45288	0.00599653	-0.247523	0.300917	-0.139963	0.135879	1.01058	-0.132265	0.0879887	1.26589	-0.231463	0.215888	1.40989	-0.0249493	-0.258638	0.13233	-0.0450204	0.0298695	1.18229	-0.262813	0.118953	1.16083	-0.197952	-0.322084	0.321262	-0.0822581	0.109684	0.462233	-0.182215	-0.316509	0.259829	-0.136931	-0.0326501	1.15985	-0.164316	-0.269713	0.124989	-0.157338	-0.0253833	1.02804	-0.014057	-0.0356092	0.353426	-0.156602	-0.0125032	0.455709	-0.184614	-0.0775062	0.412059	-0.173207	-0.299307	0.261701	-0.0483273	0.151418	1.46862	-0.182764	0.168446	0.611615	-0.179328	0.080815	0.674505	-0.17429	0.0963302	0.59687	-0.174702	0.152254	0.688848	-0.180462	0.0296403	0.395701	-0.172781	-0.225254	0.0875029	-0.0861289	0.241994	1.10389	-0.17717	0.0540731	0.116091	0.123789	0.148465	1.02974	0.138638	0.0834751	1.2589	0.285587	0.192113	0.0320138	0.0291619	0.0247972	1.19562	0.335961	0.0948423	1.12803	0.282431	-0.0126763	0.0611954	0.0677852	0.207358	0.485979	0.157452	0.0502272	0.0370436	0.125677	-0.055519	1.13631	0.257072	0.184295	0.028495	0.15108	-0.0219089	1.03055	0.0426994	0.118993	0.162627	0.0994208	0.0699459	0.251214	0.133992	0.0493061	0.0444652	0.0333388	0.147282	1.45631	0.185752	0.226467	0.586955	0.164141	0.137169	0.648297	0.16395	0.154463	0.574561	0.148978	0.206614	0.660561	0.184897	0.140855	0.23443	0.118968	0.246004	0.0418913	0.064859	0.192068	1.0497	0.326119
